<svg viewBox="0 0 120 120" xmlns="http://www.w3.org/2000/svg"><circle cx="60" cy="60" r="60" fill="#333"/><path d="M80.7 100.1c-6.2 3.3-13.2 5.1-20.7 5.1-24.8 0-44.8-20.2-44.8-45.2s20-45.2 44.8-45.2S104.8 35 104.8 60c0 2.9-.3 5.8-.8 8.5-2.4 10.2-9 8.6-9 8.6s-9-4.3-15.7.9c-4.3 3.3-1.3 14.5 1.4 22.1zM69.1 88.4c0-3.2-2.6-5.8-5.8-5.8s-5.8 2.6-5.8 5.8c0 3.2 2.6 5.8 5.8 5.8s5.8-2.6 5.8-5.8z" fill="#1d1f21"/><circle cx="39.1" cy="74" r="10.7" fill="#e74c3c"/><circle cx="35.6" cy="46.8" r="10.7" fill="#2ecc71"/><circle cx="60" cy="32.2" r="10.7" fill="#3498db"/><circle cx="84.5" cy="45.8" r="10.7" fill="#9b59b6"/></svg>